<svg width="19" height="18" viewBox="0 0 19 18" fill="none" xmlns="http://www.w3.org/2000/svg">
<mask id="mask0" mask-type="alpha" maskUnits="userSpaceOnUse" x="0" y="0" width="19" height="18">
<path d="M1.48146 10.0833H14.5824L8.85878 15.37C8.40136 15.7925 8.40136 16.4858 8.85878 16.9083C9.3162 17.3308 10.0551 17.3308 10.5125 16.9083L18.2417 9.76914C18.6991 9.34664 18.6991 8.66414 18.2417 8.24164L10.5242 1.09164C10.3051 0.888782 10.0076 0.77478 9.69738 0.77478C9.38713 0.77478 9.08964 0.888782 8.87051 1.09164C8.41309 1.51414 8.41309 2.19664 8.87051 2.61914L14.5824 7.91664H1.48146C0.836383 7.91664 0.308594 8.40414 0.308594 8.99997C0.308594 9.59581 0.836383 10.0833 1.48146 10.0833Z" fill="white"/>
</mask>
<g mask="url(#mask0)">
<path d="M1.48146 10.0833H14.5824L8.85878 15.37C8.40136 15.7925 8.40136 16.4858 8.85878 16.9083C9.3162 17.3308 10.0551 17.3308 10.5125 16.9083L18.2417 9.76914C18.6991 9.34664 18.6991 8.66414 18.2417 8.24164L10.5242 1.09164C10.3051 0.888782 10.0076 0.77478 9.69738 0.77478C9.38713 0.77478 9.08964 0.888782 8.87051 1.09164C8.41309 1.51414 8.41309 2.19664 8.87051 2.61914L14.5824 7.91664H1.48146C0.836383 7.91664 0.308594 8.40414 0.308594 8.99997C0.308594 9.59581 0.836383 10.0833 1.48146 10.0833Z" fill="white"/>
</g>
</svg>
