<svg width="15" height="16" viewBox="0 0 15 16" fill="none" xmlns="http://www.w3.org/2000/svg">
<path d="M4.83125 0.625L4.831 1.384H10.606L10.6062 0.625H12.05L12.049 1.384L13.4937 1.38487C14.2911 1.38487 14.9375 2.06528 14.9375 2.90461V14.3026C14.9375 15.142 14.2911 15.8224 13.4937 15.8224H1.94375C1.14639 15.8224 0.5 15.142 0.5 14.3026V2.90461C0.5 2.06528 1.14639 1.38487 1.94375 1.38487L3.387 1.384L3.3875 0.625H4.83125ZM13.493 6.703H1.943L1.94375 14.3026H13.4937L13.493 6.703ZM3.387 2.904L1.94375 2.90461L1.943 5.184H13.493L13.4937 2.90461L12.049 2.904L12.05 3.66447H10.6062L10.606 2.904H4.831L4.83125 3.66447H3.3875L3.387 2.904Z" fill="#565656"/>
</svg>
