<svg width="24" height="30" viewBox="0 0 24 30" fill="none" xmlns="http://www.w3.org/2000/svg">
<path d="M16.1252 0.083374L23.0622 7.42841V26.3824C23.0622 27.8348 21.9501 29.0123 20.5784 29.0123H3.1918C1.82004 29.0123 0.708008 27.8348 0.708008 26.3824V2.71328C0.708008 1.26082 1.82004 0.083374 3.1918 0.083374H16.1252ZM13.126 2.71237L3.1918 2.71328V26.3824H20.5784L20.578 10.6024L15.6108 10.603C14.239 10.603 13.127 9.42554 13.127 7.97308L13.126 2.71237ZM15.9745 13.618L17.7308 15.4776L10.6432 22.9822L6.03934 18.1075L7.79565 16.2479L10.6432 19.263L15.9745 13.618ZM15.61 3.25637L15.6108 7.97308L20.063 7.97237L15.61 3.25637Z" fill="white"/>
</svg>
