<svg width="31" height="31" viewBox="0 0 31 31" fill="none" xmlns="http://www.w3.org/2000/svg">
<mask id="mask0" mask-type="alpha" maskUnits="userSpaceOnUse" x="0" y="0" width="31" height="31">
<path d="M25.2035 5.75586C24.6496 6.30976 24.6035 7.17139 25.0958 7.78683C27.3268 10.5871 28.4962 14.4182 27.4499 18.434C26.2344 23.1268 22.5571 26.6348 17.8952 27.5733C10.0482 29.1273 3.17066 23.0652 3.17066 15.4799C3.17066 9.20235 7.86342 4.03262 13.9409 3.2787V6.38669C9.12508 7.20216 5.58628 11.7103 6.35558 16.8954C6.95564 20.9112 10.2944 24.1422 14.3256 24.6346C19.9261 25.327 24.7112 20.9573 24.7112 15.4799C24.7112 13.5566 24.1265 11.7872 23.1264 10.3101C22.6033 9.54084 21.4801 9.49469 20.8185 10.1409L20.8031 10.1563C20.28 10.6794 20.2338 11.4949 20.6339 12.1103C21.557 13.5258 21.9263 15.3414 21.3878 17.2185C20.7877 19.3264 19.0183 21.0035 16.8643 21.4805C12.8639 22.3575 9.3251 19.3418 9.3251 15.4799C9.3251 12.6181 11.2945 10.2332 13.9409 9.54084V12.8335C13.0178 13.372 12.4023 14.3413 12.4023 15.4799C12.4023 17.1723 13.7871 18.5571 15.4795 18.5571C17.172 18.5571 18.5568 17.1723 18.5568 15.4799C18.5568 14.3413 17.9413 13.3566 17.0181 12.8335V1.1862C17.0181 0.586138 16.5258 0.0937828 15.9257 0.0937828C7.67879 -0.213939 0.570413 6.34054 0.124217 14.5567C-0.429683 24.6346 8.44809 32.7431 18.6029 30.5582C24.5727 29.2812 29.1885 24.7115 30.5271 18.7571C31.6196 13.8951 30.2194 9.27928 27.4961 5.87895C26.9268 5.15581 25.8498 5.10965 25.2035 5.75586Z" fill="white"/>
</mask>
<g mask="url(#mask0)">
<path d="M25.2035 5.75586C24.6496 6.30976 24.6035 7.17139 25.0958 7.78683C27.3268 10.5871 28.4962 14.4182 27.4499 18.434C26.2344 23.1268 22.5571 26.6348 17.8952 27.5733C10.0482 29.1273 3.17066 23.0652 3.17066 15.4799C3.17066 9.20235 7.86342 4.03262 13.9409 3.2787V6.38669C9.12508 7.20216 5.58628 11.7103 6.35558 16.8954C6.95564 20.9112 10.2944 24.1422 14.3256 24.6346C19.9261 25.327 24.7112 20.9573 24.7112 15.4799C24.7112 13.5566 24.1265 11.7872 23.1264 10.3101C22.6033 9.54084 21.4801 9.49469 20.8185 10.1409L20.8031 10.1563C20.28 10.6794 20.2338 11.4949 20.6339 12.1103C21.557 13.5258 21.9263 15.3414 21.3878 17.2185C20.7877 19.3264 19.0183 21.0035 16.8643 21.4805C12.8639 22.3575 9.3251 19.3418 9.3251 15.4799C9.3251 12.6181 11.2945 10.2332 13.9409 9.54084V12.8335C13.0178 13.372 12.4023 14.3413 12.4023 15.4799C12.4023 17.1723 13.7871 18.5571 15.4795 18.5571C17.172 18.5571 18.5568 17.1723 18.5568 15.4799C18.5568 14.3413 17.9413 13.3566 17.0181 12.8335V1.1862C17.0181 0.586138 16.5258 0.0937828 15.9257 0.0937828C7.67879 -0.213939 0.570413 6.34054 0.124217 14.5567C-0.429683 24.6346 8.44809 32.7431 18.6029 30.5582C24.5727 29.2812 29.1885 24.7115 30.5271 18.7571C31.6196 13.8951 30.2194 9.27928 27.4961 5.87895C26.9268 5.15581 25.8498 5.10965 25.2035 5.75586Z" fill="white"/>
</g>
</svg>
