<svg width="25" height="29" viewBox="0 0 25 29" fill="none" xmlns="http://www.w3.org/2000/svg">
<mask id="mask0" mask-type="alpha" maskUnits="userSpaceOnUse" x="0" y="0" width="25" height="29">
<path d="M9.64557 1.3868C11.1507 -0.118354 13.591 -0.118352 15.0962 1.3868L24.0625 10.3531V28.7421H15.0694V21.0338C15.0694 19.6147 13.9191 18.4644 12.5 18.4644C11.0809 18.4644 9.93056 19.6147 9.93056 21.0338V28.7421H0.9375V10.0949L9.64557 1.3868ZM11.4625 3.20366L3.50694 11.1592V26.1727H7.36111V21.0338C7.36111 18.1957 9.66187 15.8949 12.5 15.8949C15.3381 15.8949 17.6389 18.1957 17.6389 21.0338V26.1727H21.4931V11.4174L13.2793 3.20366C12.7776 2.70195 11.9641 2.70195 11.4625 3.20366Z" fill="white"/>
</mask>
<g mask="url(#mask0)">
<path d="M9.64557 1.3868C11.1507 -0.118354 13.591 -0.118352 15.0962 1.3868L24.0625 10.3531V28.7421H15.0694V21.0338C15.0694 19.6147 13.9191 18.4644 12.5 18.4644C11.0809 18.4644 9.93056 19.6147 9.93056 21.0338V28.7421H0.9375V10.0949L9.64557 1.3868ZM11.4625 3.20366L3.50694 11.1592V26.1727H7.36111V21.0338C7.36111 18.1957 9.66187 15.8949 12.5 15.8949C15.3381 15.8949 17.6389 18.1957 17.6389 21.0338V26.1727H21.4931V11.4174L13.2793 3.20366C12.7776 2.70195 11.9641 2.70195 11.4625 3.20366Z" fill="white"/>
</g>
</svg>
