<svg width="27" height="19" viewBox="0 0 27 19" fill="none" xmlns="http://www.w3.org/2000/svg">
<mask id="mask0" mask-type="alpha" maskUnits="userSpaceOnUse" x="0" y="0" width="27" height="19">
<path d="M9.65849 0.670898H12.228C13.6469 0.670898 15.3862 1.65912 16.1127 2.87817L19.2929 8.21529H25.0752C25.7847 8.21529 26.3599 8.79046 26.3599 9.50001C26.3599 10.2096 25.7847 10.7847 25.0752 10.7847H19.1707L15.9904 16.1219C15.264 17.3409 13.5248 18.3291 12.1057 18.3291H9.53627L14.0319 10.7847H5.05299L3.21007 13.936H0.640625L3.23488 9.50001V9.45761L0.665433 5.06402H3.23488L5.07781 8.21529H14.154L9.65849 0.670898Z" fill="white"/>
</mask>
<g mask="url(#mask0)">
<path d="M9.65849 0.670898H12.228C13.6469 0.670898 15.3862 1.65912 16.1127 2.87817L19.2929 8.21529H25.0752C25.7847 8.21529 26.3599 8.79046 26.3599 9.50001C26.3599 10.2096 25.7847 10.7847 25.0752 10.7847H19.1707L15.9904 16.1219C15.264 17.3409 13.5248 18.3291 12.1057 18.3291H9.53627L14.0319 10.7847H5.05299L3.21007 13.936H0.640625L3.23488 9.50001V9.45761L0.665433 5.06402H3.23488L5.07781 8.21529H14.154L9.65849 0.670898Z" fill="white"/>
</g>
</svg>
