<svg width="17" height="16" viewBox="0 0 17 16" fill="none" xmlns="http://www.w3.org/2000/svg">
<mask id="mask0" mask-type="alpha" maskUnits="userSpaceOnUse" x="0" y="0" width="17" height="16">
<path d="M1.50781 8.61543H12.6778L7.79781 13.4954C7.40781 13.8854 7.40781 14.5254 7.79781 14.9154C8.18781 15.3054 8.81781 15.3054 9.20781 14.9154L15.7978 8.32544C16.1878 7.93544 16.1878 7.30543 15.7978 6.91543L9.21781 0.315435C9.03098 0.128182 8.77733 0.0229492 8.51281 0.0229492C8.24829 0.0229492 7.99464 0.128182 7.80781 0.315435C7.41781 0.705435 7.41781 1.33543 7.80781 1.72543L12.6778 6.61544H1.50781C0.957812 6.61544 0.507812 7.06543 0.507812 7.61544C0.507812 8.16543 0.957812 8.61543 1.50781 8.61543Z" fill="white"/>
</mask>
<g mask="url(#mask0)">
<path d="M1.50781 8.61543H12.6778L7.79781 13.4954C7.40781 13.8854 7.40781 14.5254 7.79781 14.9154C8.18781 15.3054 8.81781 15.3054 9.20781 14.9154L15.7978 8.32544C16.1878 7.93544 16.1878 7.30543 15.7978 6.91543L9.21781 0.315435C9.03098 0.128182 8.77733 0.0229492 8.51281 0.0229492C8.24829 0.0229492 7.99464 0.128182 7.80781 0.315435C7.41781 0.705435 7.41781 1.33543 7.80781 1.72543L12.6778 6.61544H1.50781C0.957812 6.61544 0.507812 7.06543 0.507812 7.61544C0.507812 8.16543 0.957812 8.61543 1.50781 8.61543Z" fill="#717CFF"/>
</g>
</svg>
