<svg width="27" height="27" viewBox="0 0 27 27" fill="none" xmlns="http://www.w3.org/2000/svg">
<path d="M0.652344 22.4931C0.652344 24.6218 2.37792 26.3473 4.50651 26.3473H22.4926C24.6213 26.3473 26.3468 24.6218 26.3468 22.4931V4.507C26.3468 2.37841 24.6213 0.652832 22.4926 0.652832H4.50651C2.37792 0.652832 0.652344 2.37841 0.652344 4.507V22.4931ZM23.7773 22.4931C23.7773 23.2027 23.2022 23.7778 22.4926 23.7778H4.50651C3.79698 23.7778 3.22179 23.2027 3.22179 22.4931V4.507C3.22179 3.79747 3.79698 3.22228 4.50651 3.22228H10.9301V13.5143L14.007 13.5144L16.0691 10.7561L18.1311 13.5144H21.208L21.2079 3.22228H22.4926C23.2022 3.22228 23.7773 3.79747 23.7773 4.507V22.4931ZM18.6385 3.22228H13.4996V10.0774L16.0691 6.64023L18.6385 10.0772V3.22228Z" fill="white"/>
</svg>
