<svg width="18" height="18" viewBox="0 0 18 18" fill="none" xmlns="http://www.w3.org/2000/svg">
<mask id="mask0" mask-type="alpha" maskUnits="userSpaceOnUse" x="0" y="0" width="18" height="18">
<path d="M9.00033 0.666504C13.6027 0.666504 17.3337 4.39746 17.3337 8.99984C17.3337 13.6022 13.6027 17.3332 9.00033 17.3332C4.39795 17.3332 0.666992 13.6022 0.666992 8.99984C0.666992 4.39746 4.39795 0.666504 9.00033 0.666504ZM9.00033 2.33317C5.31843 2.33317 2.33366 5.31794 2.33366 8.99984C2.33366 12.6818 5.31843 15.6665 9.00033 15.6665C12.6822 15.6665 15.667 12.6818 15.667 8.99984C15.667 5.31794 12.6822 2.33317 9.00033 2.33317ZM8.16699 4.83317V8.99984H12.3337V10.6665H6.50033V4.83317H8.16699Z" fill="white"/>
</mask>
<g mask="url(#mask0)">
<path d="M9.00033 0.666504C13.6027 0.666504 17.3337 4.39746 17.3337 8.99984C17.3337 13.6022 13.6027 17.3332 9.00033 17.3332C4.39795 17.3332 0.666992 13.6022 0.666992 8.99984C0.666992 4.39746 4.39795 0.666504 9.00033 0.666504ZM9.00033 2.33317C5.31843 2.33317 2.33366 5.31794 2.33366 8.99984C2.33366 12.6818 5.31843 15.6665 9.00033 15.6665C12.6822 15.6665 15.667 12.6818 15.667 8.99984C15.667 5.31794 12.6822 2.33317 9.00033 2.33317ZM8.16699 4.83317V8.99984H12.3337V10.6665H6.50033V4.83317H8.16699Z" fill="#373737"/>
</g>
</svg>
